<?xml version="1.0" encoding="UTF-8"?>
<!DOCTYPE svg PUBLIC "-//W3C//DTD SVG 1.1//EN" "http://www.w3.org/Graphics/SVG/1.1/DTD/svg11.dtd">
<!-- Creator: CorelDRAW 2018 -->
<svg xmlns="http://www.w3.org/2000/svg" xml:space="preserve" width="45.1556mm" height="45.1556mm" version="1.1" style="shape-rendering:geometricPrecision; text-rendering:geometricPrecision; image-rendering:optimizeQuality; fill-rule:evenodd; clip-rule:evenodd"
viewBox="0 0 4515.56 4515.56"
 xmlns:xlink="http://www.w3.org/1999/xlink">
 <defs>
  <style type="text/css">
   <![CDATA[
    .str0 {stroke:#009846;stroke-width:7.62;stroke-miterlimit:22.9256}
    .fil0 {fill:#009846}
   ]]>
  </style>
 </defs>
 <g id="Layer_x0020_1">
  <metadata id="CorelCorpID_0Corel-Layer"/>
  <path class="fil0 str0" d="M661.28 661.29l511.27 0 188.12 -475.41 509.58 201.63 387.52 -387.51 361.52 361.52 469.19 -203.15 217.76 502.92 548.02 0 0 511.27 475.42 188.11 -201.64 509.58 387.52 387.52 -361.53 361.53 203.15 469.18 -502.92 217.76 -0.01 548.03 -511.26 0 -188.1 475.41 -509.6 -201.64 -387.52 387.52 -361.52 -361.53 -469.18 203.15 -217.75 -502.91 -548.04 0 0 -511.27 -475.41 -188.11 201.63 -509.6 -387.5 -387.51 361.52 -361.52 -203.15 -469.19 502.91 -217.75 0 -548.03zm51.41 1987.4l0 -781.82 153.23 0 321.76 523.94 0 -523.94 146.32 0 0 781.82 -158.15 0 -316.84 -513.94 0 513.94 -146.32 0zm755.8 -386.18c0,-79.71 12.01,-146.69 35.85,-200.92 17.65,-39.85 42.04,-75.7 72.8,-107.37 30.75,-31.67 64.42,-55.14 101,-70.62 48.77,-20.56 105.01,-30.93 168.7,-30.93 115.38,0 207.47,35.85 276.8,107.37 69.16,71.71 103.75,171.25 103.75,298.83 0,126.48 -34.41,225.48 -103.01,296.82 -68.62,71.52 -160.52,107.19 -275.35,107.19 -116.3,0 -208.92,-35.49 -277.54,-106.63 -68.61,-70.98 -103,-168.9 -103,-293.74zm162.69 -5.28c0,88.63 20.57,155.78 61.52,201.64 40.95,45.68 92.99,68.62 155.97,68.62 63.15,0 114.83,-22.75 155.41,-68.06 40.4,-45.5 60.61,-113.57 60.61,-204.38 0,-89.73 -19.66,-156.69 -59.15,-200.74 -39.31,-44.22 -91.54,-66.24 -156.87,-66.24 -65.16,0 -117.76,22.38 -157.61,66.97 -39.86,44.77 -59.88,112.1 -59.88,202.19zm919.42 391.46l-279.72 -781.82 171.07 0 198.55 578.72 190.54 -578.72 168.16 0 -278.08 781.82 -170.52 0zm495.56 -386.18c0,-79.71 12.01,-146.69 35.85,-200.92 17.65,-39.85 42.04,-75.7 72.79,-107.37 30.76,-31.67 64.43,-55.14 101,-70.62 48.78,-20.56 105.01,-30.93 168.71,-30.93 115.38,0 207.47,35.85 276.8,107.37 69.16,71.71 103.74,171.25 103.74,298.83 0,126.48 -34.4,225.48 -103.01,296.82 -68.61,71.52 -160.51,107.19 -275.34,107.19 -116.3,0 -208.93,-35.49 -277.54,-106.63 -68.61,-70.98 -103,-168.9 -103,-293.74zm162.69 -5.28c0,88.63 20.57,155.78 61.52,201.64 40.94,45.68 92.99,68.62 155.96,68.62 63.15,0 114.83,-22.75 155.42,-68.06 40.4,-45.5 60.6,-113.57 60.6,-204.38 0,-89.73 -19.66,-156.69 -59.14,-200.74 -39.31,-44.22 -91.55,-66.24 -156.88,-66.24 -65.15,0 -117.75,22.38 -157.6,66.97 -39.86,44.77 -59.88,112.1 -59.88,202.19z"/>
 </g>
</svg>
