<?xml version="1.0" encoding="UTF-8"?>
<!DOCTYPE svg PUBLIC "-//W3C//DTD SVG 1.1//EN" "http://www.w3.org/Graphics/SVG/1.1/DTD/svg11.dtd">
<!-- Creator: CorelDRAW 2018 -->
<svg xmlns="http://www.w3.org/2000/svg" xml:space="preserve" width="176.389mm" height="176.389mm" version="1.1" style="shape-rendering:geometricPrecision; text-rendering:geometricPrecision; image-rendering:optimizeQuality; fill-rule:evenodd; clip-rule:evenodd"
viewBox="0 0 17638.88 17638.88"
 xmlns:xlink="http://www.w3.org/1999/xlink">
 <defs>
  <style type="text/css">
   <![CDATA[
    .fil0 {fill:#75A8FF}
   ]]>
  </style>
   <clipPath id="id0">
    <rect x="46350.47" y="5723.14" width="18062.22" height="18062.22"/>
   </clipPath>
 </defs>
 <g id="Layer_x0020_1">
  <metadata id="CorelCorpID_0Corel-Layer"/>
  <path class="fil0" d="M-0.01 0l12800.15 0 4838.74 4838.74 0 12800.14 -0.01 0 -17638.88 -17638.88zm8888.62 1866.79l84.52 1270.48c7.89,118.42 26,192.25 53.86,220.11 47.37,47.36 121.66,20.43 222.43,-80.34 114.23,-114.23 185.28,-199.2 213.14,-254 28.32,-55.26 31.12,-115.62 8.36,-180.17 -18.11,-52.47 -25.07,-95.66 -19.97,-129.56 5.11,-33.89 22.75,-66.4 53.86,-97.51 76.16,-76.16 177.4,-72.45 303.23,9.75 52.02,33.43 130.95,103.09 237.29,209.43 136.98,136.98 223.36,240.07 259.58,308.79 58.05,109.13 51.54,198.28 -19.51,269.33 -58.97,58.98 -136.98,69.19 -234.96,31.58 -39.01,-15.79 -68.26,-23.69 -86.83,-24.61 -19.51,-0.94 -41.33,4.18 -66.87,14.86 -84.52,35.29 -210.36,136.06 -378.45,302.3l-443.47 443.47c-67.79,67.79 -160.21,161.12 -277.22,280 -158.81,160.66 -283.73,266.08 -374.28,316.69 -112.37,64.08 -200.6,63.16 -265.61,-0.92 -27.4,-28.34 -46.43,-58.51 -54.79,-91.03 -8.36,-31.56 -14.86,-92.86 -19.97,-182.49l-84.05 -1529.13c-5.57,-106.8 -26.93,-179.24 -64.08,-216.4 -55.26,-55.25 -159.74,-6.49 -312.98,146.74 -125.85,125.85 -204.78,219.64 -237.29,280.01 -32.04,59.91 -37.61,123.06 -15.32,188.07 30.65,91.02 21.82,160.2 -26.01,208.03 -126.3,126.3 -325.05,53.87 -596.24,-217.32 -122.12,-122.12 -201.06,-233.57 -236.81,-333.4 -34.83,-99.85 -23.22,-179.25 35.75,-238.23 30.64,-30.64 60.37,-47.36 88.23,-50.15 27.86,-2.78 77.55,5.12 148.59,23.23 68.27,17.18 138.38,-1.87 212.22,-57.12 132.34,-101.7 308.33,-261.9 527.97,-481.54 234.04,-234.04 390.53,-418.39 470.86,-552.59 28.79,-49.22 45.05,-90.55 48.76,-124.91 3.26,-34.83 -3.72,-78.02 -21.83,-130.49 -20.89,-60.84 -29.71,-108.66 -26.93,-143.95 3.25,-34.83 18.58,-65.94 45.98,-93.34 86.83,-86.83 216.39,-66.86 389.12,60.37 58.05,43.18 150.46,128.16 277.69,255.4 72.45,72.44 119.35,131.41 141.17,175.53 21.82,44.11 35.29,109.58 40.86,195.03zm2682.61 2475.49c233.11,233.11 370.55,503.36 410.96,811.24 26.46,209.42 3.24,423.96 -69.19,643.13 -73.84,216.86 -182.96,397.5 -328.31,542.84 -214.07,214.07 -475.96,334.8 -786.16,361.74 -263.29,23.69 -521.94,-29.72 -777.8,-160.2 -156.95,-80.81 -295.33,-181.1 -415.14,-300.91 -156.95,-156.95 -274.43,-339.44 -352.45,-548.4 -94.27,-252.16 -110.51,-507.09 -49.22,-764.35 58.97,-249.35 182.03,-467.13 367.78,-652.88 215.92,-215.93 467.14,-345.49 754.58,-387.75 256.32,-38.07 510.33,0.47 763.4,115.16 170.42,76.63 331.09,189.93 481.55,340.38zm-519.62 261.44c-76.16,-76.16 -170.42,-102.63 -282.8,-79.41 -85.44,16.72 -162.99,59.9 -232.64,129.55 -102.62,102.63 -200.13,241.94 -293.01,418.4 -92.87,176.45 -160.21,348.73 -200.6,516.36 -16.73,72.45 -17.19,142.56 -2.33,210.36 15.33,67.33 43.65,122.59 86.37,165.31 68.73,68.73 150.46,98.44 244.25,89.16 93.81,-10.21 182.97,-56.65 267.48,-141.16 109.59,-109.59 210.35,-245.65 301.83,-407.71 91.48,-163 154.17,-316.7 188.07,-462.97 20.43,-90.09 24.15,-173.67 10.68,-250.29 -13.93,-77.08 -43.19,-139.77 -87.3,-187.6zm2946.82 3085.2l-1888.09 639.89c-116.08,39.93 -206.63,57.11 -270.25,52 -63.62,-5.11 -122.13,-33.9 -174.6,-86.37 -43.65,-43.64 -73.38,-91.94 -88.69,-145.34 -11.62,-41.32 -15.33,-78.48 -10.68,-112.84 4.64,-34.37 20.89,-88.69 48.75,-162.06l669.61 -1782.22c38.08,-99.37 57.11,-174.13 57.12,-224.28 0,-50.15 -19.51,-102.16 -57.13,-156.49 -44.1,-64.54 -38.07,-125.37 19.05,-182.49 69.65,-69.65 171.34,-75.69 304.15,-18.11 132.81,57.58 288.37,175.06 466.22,352.91 184.81,184.81 306.47,335.27 365.45,449.97 58.97,115.62 58.97,202.92 0.46,261.43 -38.54,38.54 -97.51,50.15 -177.38,35.3 -60.83,-11.62 -102.16,-6.51 -123.53,14.85 -19.96,19.96 -40.39,57.11 -61.29,110.52l-213.6 553.51c-31.57,80.8 -32.51,136.52 -1.39,167.64 29.72,29.72 71.51,41.79 125.37,35.29 52.94,-6.5 143.96,-33.43 272.12,-81.72 229.39,-86.38 364.05,-137.46 404.46,-154.64 40.39,-16.26 68.25,-32.97 83.58,-48.3 30.64,-30.64 35.75,-78.46 15.33,-142.55 -22.77,-71.97 -15.33,-126.77 22.74,-164.85 107.74,-107.73 306.95,-17.18 596.24,272.12 143.96,143.95 234.5,257.72 270.73,340.37 36.21,82.66 26,151.39 -30.65,208.03 -66.87,66.87 -144.41,66.41 -232.64,-1.39 -61.3,-49.22 -106.34,-75.69 -134.21,-80.33 -49.68,-7.9 -135.59,8.35 -257.25,50.15zm1325.75 2316.69l-293.48 807.98c-26,75.23 -39.01,129.1 -38.54,161.13 0,32.51 14.39,68.26 42.71,106.81 55.27,75.69 54.8,141.16 -1.38,197.35 -66.41,66.41 -153.71,73.83 -262.83,23.22 -108.66,-51.08 -253.54,-167.17 -435.58,-348.27 -204.31,-205.24 -347.8,-365.45 -429.52,-481.54 -37.15,-53.87 -56.65,-105.88 -58.51,-157.89 -1.86,-52.01 15.32,-95.18 50.61,-130.47 27.4,-27.4 55.26,-41.33 84.06,-42.27 28.78,-0.92 68.72,11.15 120.26,36.69 56.65,27.86 102.62,24.61 136.99,-9.75 60.83,-60.84 59.9,-133.27 -2.79,-217.33 -67.8,-90.08 -173.67,-206.17 -317.16,-349.65 -120.73,-120.73 -199.67,-185.75 -238.21,-194.58 -23.22,-5.56 -52.01,-1.84 -86.84,10.69 -34.36,13 -62.69,30.18 -84.51,52 -19.5,19.51 -28.79,36.22 -26.93,50.16 1.85,13.93 17.17,48.75 46.43,104.94 39.01,71.52 33.89,131.42 -15.33,180.64 -107.73,107.73 -291.15,32.97 -549.8,-225.67 -146.73,-146.74 -244.25,-264.7 -293.47,-353.86 -44.57,-82.65 -34.36,-156.02 29.72,-220.1 28.32,-28.32 57.12,-43.19 86.37,-44.58 29.72,-0.93 69.19,9.75 117.95,33.43 79.87,38.09 153.7,53.41 221.96,46.44 67.8,-7.43 191.32,-44.58 371.02,-111.91l612.5 -228c224.75,-83.58 387.73,-151.84 488.5,-204.32 100.3,-52.93 187.6,-115.16 262.36,-188.07 78.95,-77.08 137.45,-126.3 176.93,-148.13 39,-21.35 87.75,-32.04 146.73,-31.57 125.84,-0.46 237.76,47.36 334.81,144.41 91.47,91.48 143.48,215.01 155.09,370.57 18.11,214.06 -98.44,667.75 -350.12,1361.5zm-1118.18 -775.48l267 267c48.76,48.77 84.51,62.23 106.34,40.4 29.72,-29.72 69.19,-136.99 117.95,-322.26 22.75,-84.06 35.29,-143.96 37.15,-178.31 1.39,-34.83 -6.97,-60.84 -25.08,-78.94 -32.5,-32.51 -90.08,-29.73 -172.28,9.74 -12.07,4.64 -57.58,23.23 -136.06,57.12 -130.48,54.33 -204.78,90.55 -222.88,108.66 -22.76,22.75 -13.93,54.8 27.86,96.59z"/>
  <g style="clip-path:url(#id0)">
   <image id="new.png" x="46350.47" y="5723.14" width="18062.22" height="18062.22" xlink:href="novo_Images\novo_ImgID1.png"/>
  </g>
 </g>
</svg>
